# xmcd
#
# Track frame offsets:
#	150
#	12584
#	29683
#	42067
#	59178
#	74893
#	89087
#	106379
#	122907
#	138871
#	156583
#	173088
#	187356
#	204710
#	217886
#	231623
#	246702
#	260411
#	261145
#	262136
#	263069
#	263915
#
# Disc length: 3528
#
# Revision: 1
# Processed by: cddbd v1.5.1PL0 Copyright (c) Steve Scherf et al.
# Submitted via: VisiTrax 2.9.5.180 - For more info visit www.synapsa.com
# Normalized: r0:DSETVAR1
#
DISCID=750dc616
DTITLE=Various Artist - CDX 217 July 1999
DYEAR=1999
DGENRE=
TTITLE0=Yankee Grey - All things considered
TTITLE1=Jason Sellers - A matter of time
TTITLE2=Geezinslaws - Bad rock and roll
TTITLE3=Anita Cochran - For crying out loud
TTITLE4=Sisters Wade - How much longer
TTITLE5=Andy Griggs - I'll go crazy
TTITLE6=Sammy Kershaw - Ma and Maxine
TTITLE7=Kelly Willis - Not forgotten ou
TTITLE8=Philip Claypool - Perfect world
TTITLE9=Dixie Chicks - Ready to run
TTITLE10=Lee Roy Parnell - She won't be lonely long
TTITLE11=Collin Raye - Start over Georgia
TTITLE12=Deryl Dodd - Sundown
TTITLE13=Wilkinsons - The yodelin' blues
TTITLE14=George Strait - What do you say to that
TTITLE15=Jessica Andrews - You go first (do you wanna kiss)
TTITLE16=Beth Magurie - Spoiled rotten
TTITLE17=Wilkinsons - Liners
TTITLE18=Wilkinsons - Liners
TTITLE19=Wilkinsons - Liners
TTITLE20=Wilkinsons - Liners
TTITLE21=Wilkinsons - Liners
EXTD=
EXTT0=
EXTT1=
EXTT2=
EXTT3=
EXTT4=
EXTT5=
EXTT6=
EXTT7=
EXTT8=
EXTT9=
EXTT10=
EXTT11=
EXTT12=
EXTT13=
EXTT14=
EXTT15=
EXTT16=
EXTT17=
EXTT18=
EXTT19=
EXTT20=
EXTT21=
PLAYORDER=
